<svg width="105" height="28" viewBox="0 0 105 28" fill="none" xmlns="http://www.w3.org/2000/svg">
<path d="M29.6191 21.12C27.6591 21.12 25.9724 20.9267 24.5591 20.54L25.0391 17.46C26.2791 17.58 27.7724 17.64 29.5191 17.64C30.2791 17.64 30.8057 17.5733 31.0991 17.44C31.4057 17.2933 31.5924 17.04 31.6591 16.68L31.6991 16.46C31.7124 16.3933 31.7191 16.3067 31.7191 16.2C31.7191 15.9333 31.6057 15.7467 31.3791 15.64C31.1657 15.5333 30.8124 15.48 30.3191 15.48H29.5191C28.3324 15.48 27.3924 15.1533 26.6991 14.5C26.0191 13.8467 25.6791 13.0067 25.6791 11.98C25.6791 11.7 25.6991 11.4133 25.7391 11.12L25.9191 9.98C26.1457 8.59333 26.7324 7.58667 27.6791 6.96C28.6257 6.33333 29.9257 6.02 31.5791 6.02C33.1391 6.02 34.6857 6.21333 36.2191 6.6L35.7391 9.68C34.4857 9.56 32.9324 9.5 31.0791 9.5C30.1591 9.5 29.6457 9.81333 29.5391 10.44L29.4991 10.66C29.4724 10.82 29.4591 10.9333 29.4591 11C29.4591 11.5467 29.7991 11.82 30.4791 11.82H31.3591C32.6657 11.82 33.6791 12.14 34.3991 12.78C35.1324 13.4067 35.4991 14.2267 35.4991 15.24C35.4991 15.48 35.4791 15.74 35.4391 16.02L35.2191 17.42C35.0857 18.26 34.8257 18.9467 34.4391 19.48C34.0657 20.0133 33.4857 20.42 32.6991 20.7C31.9257 20.98 30.8991 21.12 29.6191 21.12ZM38.2225 6.14H42.1025L41.1825 11.86H45.5825L46.5025 6.14H50.3825L48.0225 21H44.1425L45.0425 15.34H40.6425L39.7425 21H35.8625L38.2225 6.14ZM55.7827 6.14H60.6227L62.6627 21H58.6427L58.4227 18.64H53.9627L53.0027 21H49.0227L55.7827 6.14ZM58.0627 15.16L57.6427 9.44L55.4027 15.16H58.0627ZM69.467 21.12C67.7204 21.12 66.407 20.66 65.527 19.74C64.6604 18.8067 64.227 17.5067 64.227 15.84C64.227 14.9733 64.307 14.0333 64.467 13.02C64.8404 10.62 65.527 8.85333 66.527 7.72C67.527 6.58667 68.987 6.02 70.907 6.02C72.0137 6.02 72.9804 6.12 73.807 6.32C74.6337 6.50667 75.3204 6.73333 75.867 7L75.367 10.08C74.807 9.90667 74.187 9.76667 73.507 9.66C72.827 9.55333 72.2004 9.5 71.627 9.5C70.9604 9.5 70.4337 9.58667 70.047 9.76C69.6604 9.92 69.3204 10.3 69.027 10.9C68.747 11.5 68.507 12.4267 68.307 13.68C68.147 14.7333 68.067 15.4667 68.067 15.88C68.067 16.5067 68.247 16.96 68.607 17.24C68.967 17.5067 69.6004 17.64 70.507 17.64C71.2537 17.64 71.8737 17.6267 72.367 17.6C72.8737 17.56 73.487 17.5 74.207 17.42L73.727 20.48C72.647 20.9067 71.227 21.12 69.467 21.12ZM77.603 6.14H81.483L80.583 11.8H82.103L85.583 6.14H89.523L84.943 13.62L87.563 21H83.723L81.763 15.28H80.023L79.123 21H75.243L77.603 6.14Z" fill="white"/>
<path d="M90.2691 11.012C90.2291 11.012 90.1971 11.002 90.1731 10.982C90.1531 10.962 90.1431 10.934 90.1431 10.898V10.874L90.2571 10.172C90.2651 10.128 90.2831 10.092 90.3111 10.064C90.3391 10.036 90.3771 10.022 90.4251 10.022H91.1031C91.1871 10.022 91.2291 10.058 91.2291 10.13V10.172L91.1151 10.874C91.0991 10.966 91.0431 11.012 90.9471 11.012H90.2691ZM93.3009 11.036C92.9569 11.036 92.6689 10.996 92.4369 10.916C92.2089 10.836 92.0289 10.688 91.8969 10.472C91.7649 10.256 91.6989 9.954 91.6989 9.566C91.6989 9.29 91.7289 8.972 91.7889 8.612C91.8769 8.072 92.0069 7.65 92.1789 7.346C92.3549 7.042 92.5889 6.826 92.8809 6.698C93.1769 6.57 93.5569 6.506 94.0209 6.506C94.3569 6.506 94.6389 6.548 94.8669 6.632C95.0989 6.712 95.2829 6.866 95.4189 7.094C95.5549 7.318 95.6229 7.636 95.6229 8.048C95.6229 8.304 95.5929 8.616 95.5329 8.984C95.4449 9.54 95.3129 9.966 95.1369 10.262C94.9649 10.554 94.7349 10.756 94.4469 10.868C94.1629 10.98 93.7809 11.036 93.3009 11.036ZM93.4809 9.986C93.6729 9.986 93.8269 9.944 93.9429 9.86C94.0589 9.776 94.1489 9.654 94.2129 9.494C94.2769 9.33 94.3309 9.11 94.3749 8.834C94.4309 8.482 94.4589 8.224 94.4589 8.06C94.4589 7.86 94.4129 7.726 94.3209 7.658C94.2329 7.586 94.0789 7.55 93.8589 7.55C93.6669 7.55 93.5129 7.586 93.3969 7.658C93.2849 7.726 93.1949 7.846 93.1269 8.018C93.0589 8.19 92.9989 8.438 92.9469 8.762C92.8909 9.098 92.8629 9.346 92.8629 9.506C92.8629 9.686 92.9089 9.812 93.0009 9.884C93.0929 9.952 93.2529 9.986 93.4809 9.986ZM96.4035 6.542H98.1555C98.5875 6.542 98.9115 6.636 99.1275 6.824C99.3435 7.012 99.4515 7.306 99.4515 7.706C99.4515 7.826 99.4395 7.958 99.4155 8.102C99.3795 8.346 99.3135 8.548 99.2175 8.708C99.1255 8.864 99.0315 8.98 98.9355 9.056C98.8395 9.132 98.7315 9.204 98.6115 9.272L99.1095 11H97.9275L97.5495 9.464H97.1055L96.8595 11H95.6955L96.4035 6.542ZM97.7355 8.54C97.9115 8.54 98.0335 8.502 98.1015 8.426C98.1695 8.35 98.2175 8.22 98.2455 8.036C98.2535 7.996 98.2575 7.942 98.2575 7.874C98.2575 7.778 98.2315 7.706 98.1795 7.658C98.1275 7.61 98.0415 7.586 97.9215 7.586H97.3995L97.2495 8.54H97.7355ZM100.817 11.036C100.401 11.036 100.103 10.924 99.9228 10.7C99.7468 10.472 99.6588 10.11 99.6588 9.614C99.6588 9.354 99.6948 8.996 99.7668 8.54C99.8748 7.848 100.095 7.336 100.427 7.004C100.759 6.672 101.203 6.506 101.759 6.506C102.123 6.506 102.425 6.526 102.665 6.566C102.909 6.602 103.137 6.654 103.349 6.722L103.205 7.634C102.897 7.574 102.465 7.544 101.909 7.544C101.677 7.544 101.499 7.58 101.375 7.652C101.251 7.724 101.155 7.846 101.087 8.018C101.019 8.19 100.959 8.448 100.907 8.792C100.859 9.096 100.835 9.332 100.835 9.5C100.835 9.808 100.969 9.962 101.237 9.962C101.357 9.962 101.487 9.956 101.627 9.944C101.771 9.932 101.879 9.918 101.951 9.902L102.041 9.326H101.423L101.573 8.402L101.795 8.384C102.103 8.356 102.361 8.342 102.569 8.342C102.881 8.342 103.129 8.346 103.313 8.354L102.893 11H102.017L101.909 10.706C101.785 10.786 101.609 10.862 101.381 10.934C101.157 11.002 100.969 11.036 100.817 11.036Z" fill="white"/>
<path d="M13.7907 20.479H3.59373L2.90073 17.608L12.7347 0.480999H19.2687L10.9527 15.067H14.6487L15.2097 11.437L16.9257 8.269H22.1067L21.0507 15.067H23.0307L22.3047 19.489L20.1927 20.479L19.4667 25H13.0647L13.7907 20.479Z" fill="white"/>
</svg>
